
        <svg xmlns="http://www.w3.org/2000/svg" xmlns:xlink="http://www.w3.org/1999/xlink" version="1.1" width="3187.5" height="887.564192922957" viewBox="0 0 3187.5 887.564192922957">
			
			<g transform="scale(9.375) translate(10, 10)">
				<defs id="SvgjsDefs2219"><linearGradient id="SvgjsLinearGradient2224"><stop id="SvgjsStop2225" stop-color="#ef4136" offset="0"/><stop id="SvgjsStop2226" stop-color="#fbb040" offset="1"/></linearGradient><linearGradient id="SvgjsLinearGradient2227"><stop id="SvgjsStop2228" stop-color="#ef4136" offset="0"/><stop id="SvgjsStop2229" stop-color="#fbb040" offset="1"/></linearGradient></defs><g id="SvgjsG2220" featureKey="symbolFeature-0" transform="matrix(1.3887465881823675,0,0,1.3887465881823675,-19.442452234553144,-32.06554970353833)" fill="#fff"><title xmlns="http://www.w3.org/2000/svg">Datascience</title><path xmlns="http://www.w3.org/2000/svg" d="M86,50.94V41.5a2.2,2.2,0,0,0,0-.36c0-3.25-5.67-5-11-5-5.11,0-10.51,1.61-11,4.6a1.06,1.06,0,0,0-.08.4v6c-4.78.2-9.5,1.79-9.92,4.58a1.06,1.06,0,0,0-.08.4V71.86c0,3.25,5.67,5,11,5s11-1.75,11-5v-6c5-.2,10-1.93,10-5V51.5a2.2,2.2,0,0,0,0-.36A1.42,1.42,0,0,0,86,50.94ZM56,55.07c2.12,1.36,5.64,2.07,9,2.07s6.83-.69,9-2v7.25c-.4,1.2-3.8,2.77-9,2.77-5.49,0-9-1.78-9-3a1.42,1.42,0,0,0,0-.2ZM76,52.5a2.2,2.2,0,0,0,0-.36c0-3-5-4.79-10-5V44.07c2.12,1.36,5.64,2.07,9,2.07s6.83-.69,9-2v7.25c-.37,1.13-3.38,2.57-8,2.75ZM75,38.14c5.34,0,8.79,1.67,9,2.89,0,0,0,.07,0,.11v.23c-.4,1.2-3.8,2.77-9,2.77-5.49,0-9-1.78-9-3S69.51,38.14,75,38.14Zm-10,11c5.34,0,8.79,1.67,9,2.89,0,0,0,.07,0,.11v.23c-.4,1.2-3.8,2.77-9,2.77-5.49,0-9-1.78-9-3S59.51,49.14,65,49.14Zm0,25.72c-5.49,0-9-1.78-9-3V65.07c2.12,1.36,5.64,2.07,9,2.07s6.83-.69,9-2v6.74C74,73.08,70.45,74.86,65,74.86Zm11-11V62.5a2.2,2.2,0,0,0,0-.36,1.42,1.42,0,0,0,0-.2V56.12a17.33,17.33,0,0,0,8-2v6.74C84,62,80.88,63.64,76,63.84ZM46.65,58.17l16.42-32,3.61,6a1,1,0,1,0,1.71-1l-4.53-7.59a1,1,0,0,0-.89-.49,1,1,0,0,0-.86.54L44.88,57.24a4.32,4.32,0,0,0-.88-.1,3.86,3.86,0,0,0-.84.09l-7.9-15.8a4,4,0,1,0-4.82-.25l-8,12H15a1,1,0,0,0,0,2h8a1,1,0,0,0,.83-.45l8.42-12.63a3.74,3.74,0,0,0,.75.08c.12,0,.24,0,.36,0l8,16a4,4,0,1,0,5.27,0ZM33,36.14a2,2,0,1,1-2,2A2,2,0,0,1,33,36.14Zm11,27a2,2,0,1,1,2-2A2,2,0,0,1,44,63.14Z"/></g><g id="SvgjsG2221" featureKey="nameFeature-0" transform="matrix(1.7294437561989922,0,0,1.7294437561989922,115.84591164388596,-7.334801981249669)" fill="#fff"><path d="M6.6406 23.828 l4.5313 -0.000038146 c1.0417 0 1.9271 -0.37109 2.6563 -1.1133 c0.74219 -0.72916 1.1133 -1.6146 1.1133 -2.6563 s-0.37109 -1.9271 -1.1133 -2.6563 c-0.72916 -0.74219 -1.6146 -1.1133 -2.6563 -1.1133 l-4.5313 0 l0 7.5391 z M6.6406 35.7617 l6.0742 0.000019073 c1.0547 0 1.9596 -0.3776 2.7148 -1.1328 c0.74219 -0.75521 1.1133 -1.6667 1.1133 -2.7344 c0 -1.0547 -0.37109 -1.9531 -1.1133 -2.6953 c-0.75521 -0.75521 -1.6602 -1.1328 -2.7148 -1.1328 l-6.0742 0 l0 7.6953 z M2.4023 39.999980927 l0.000019073 -27.949 l8.7695 0 c2.2135 0 4.1016 0.78125 5.6641 2.3438 c1.5625 1.5755 2.3438 3.4635 2.3438 5.6641 c0 1.9662 -0.6315 3.6914 -1.8945 5.1758 c1.0807 0.74219 1.9271 1.6927 2.5391 2.8516 c0.65104 1.1849 0.97656 2.4545 0.97656 3.8086 c0 2.2396 -0.79428 4.1471 -2.3828 5.7227 c-1.5755 1.5885 -3.4766 2.3828 -5.7031 2.3828 l-10.313 0 z M29.8828375 18.945 c-1.9531 1.9531 -2.9297 4.31 -2.9297 7.0703 s0.97656 5.1172 2.9297 7.0703 s4.31 2.9297 7.0703 2.9297 s5.1172 -0.97656 7.0703 -2.9297 s2.9297 -4.31 2.9297 -7.0703 s-0.97656 -5.1172 -2.9297 -7.0703 s-4.31 -2.9297 -7.0703 -2.9297 s-5.1172 0.97656 -7.0703 2.9297 z M26.8750375 36.0937 c-2.7865 -2.7865 -4.1797 -6.1459 -4.1797 -10.078 s1.3932 -7.2916 4.1797 -10.078 s6.1459 -4.1797 10.078 -4.1797 s7.2916 1.3932 10.078 4.1797 s4.1797 6.1459 4.1797 10.078 s-1.3932 7.2916 -4.1797 10.078 s-6.1459 4.1797 -10.078 4.1797 s-7.2916 -1.3932 -10.078 -4.1797 z M54.4922375 12.050999999999998 l0 27.949 l14.258 0 l0 -4.2383 l-10.02 0 l0 -23.711 l-4.2383 0 z M88.3596875 12.050999999999998 l-17.676 27.949 l5.0195 0 l4.1211 -6.5234 l9.4922 0 l0 6.5234 l4.2578 0 l0 -27.949 l-5.2148 0 z M89.3166875 18.477 l0 10.762 l-6.8164 0 z M102.36329375 23.984 l0 -7.6953 l6.0742 0 c1.0547 0 1.9596 0.3776 2.7148 1.1328 c0.74219 0.75521 1.1133 1.6667 1.1133 2.7344 c0 1.0547 -0.37109 1.9531 -1.1133 2.6953 c-0.75521 0.75521 -1.6602 1.1328 -2.7148 1.1328 l-6.0742 0 z M111.60109375 27.578 c1.4583 -0.625 2.6367 -1.6015 3.5352 -2.9297 c0.92447 -1.3542 1.3867 -2.8516 1.3867 -4.4922 c0 -2.2396 -0.79428 -4.1471 -2.3828 -5.7227 c-1.5755 -1.5885 -3.4766 -2.3828 -5.7031 -2.3828 l-10.313 0 l0 27.949 l4.2383 0 l0 -11.777 l4.7852 0 l6.1133 11.777 l4.7852 0 z"/></g>
			</g>
		</svg>
	